<svg width="102" height="102" viewBox="0 0 102 102" fill="none" xmlns="http://www.w3.org/2000/svg">
<rect x="7" y="7" width="88" height="88" rx="12" fill="url(#paint0_radial_4441_14011)" fill-opacity="0.4"/>
<path fill-rule="evenodd" clip-rule="evenodd" d="M31.2916 45.5013C31.2916 46.253 31.915 46.8763 32.6666 46.8763C33.4183 46.8763 34.0416 46.253 34.0416 45.5013C34.0416 40.0746 37.8183 35.528 42.8966 34.3363L42.4016 35.1613C41.9983 35.8213 42.2183 36.6646 42.86 37.0496C43.52 37.453 44.3633 37.233 44.7483 36.5913L46.6733 33.3646C46.93 32.943 46.93 32.4113 46.6916 31.9896C46.4533 31.568 45.995 31.293 45.5 31.293C37.6716 31.293 31.2916 37.673 31.2916 45.5013ZM55.3086 70.0101C55.547 70.4318 56.0053 70.7068 56.5003 70.7068C64.3286 70.7068 70.7086 64.3268 70.727 56.4984C70.727 55.7468 70.1036 55.1234 69.352 55.1234C68.6003 55.1234 67.977 55.7468 67.977 56.4984C67.977 61.9251 64.182 66.4718 59.122 67.6634L59.617 66.8384C60.002 66.1784 59.8003 65.3351 59.1403 64.9501C58.4803 64.5651 57.637 64.7668 57.252 65.4268L55.327 68.6351C55.0703 69.0568 55.0703 69.5884 55.3086 70.0101ZM48.5598 54.3873L42.8031 51.2889C42.1981 50.9589 41.4648 50.9589 40.8598 51.2889L35.1031 54.3873C34.6814 54.6073 34.4248 55.0656 34.4248 55.5606C34.4248 56.0556 34.6814 56.5139 35.1031 56.7339L40.8598 59.8323C41.1714 59.9972 41.5014 60.0706 41.8314 60.0706C42.1614 60.0706 42.4914 59.9972 42.8031 59.8323L48.5598 56.7339C48.9814 56.5139 49.2381 56.0556 49.2381 55.5606C49.2381 55.0656 48.9631 54.6256 48.5598 54.3873ZM34.555 58.2441L39.9083 60.9208C40.6966 61.3058 41.1916 62.0941 41.1916 62.9558V68.0158C41.1916 68.4741 40.9533 68.8958 40.5683 69.1341C40.3483 69.2624 40.11 69.3358 39.8716 69.3358C39.67 69.3358 39.4683 69.2808 39.285 69.2074L33.9316 66.5308C33.1433 66.1458 32.6666 65.3574 32.6666 64.4774V59.4174C32.6666 58.9591 32.905 58.5374 33.2716 58.2991C33.675 58.0608 34.1516 58.0424 34.555 58.2441ZM50.3759 58.2991C49.9909 58.0608 49.5142 58.0424 49.0926 58.2441L43.7392 60.9208C42.9509 61.3058 42.4742 62.0941 42.4742 62.9741V68.0341C42.4742 68.4925 42.7126 68.9141 43.0976 69.1524C43.3176 69.2624 43.5559 69.3358 43.7942 69.3358C43.9959 69.3358 44.1976 69.2808 44.3809 69.1891L49.7342 66.5124C50.5226 66.1274 50.9992 65.3391 50.9992 64.4591V59.3991C50.9992 58.9591 50.7609 58.5374 50.3759 58.2991ZM61.1364 32.9241L66.8931 36.0224C67.2964 36.2424 67.5714 36.6824 67.5714 37.1958C67.5714 37.6908 67.3148 38.1491 66.8931 38.3691L61.1364 41.4674C60.8248 41.6324 60.4948 41.7058 60.1648 41.7058C59.8348 41.7058 59.5048 41.6324 59.1931 41.4674L53.4364 38.3691C53.0148 38.1491 52.7581 37.6908 52.7581 37.1958C52.7581 36.7008 53.0148 36.2424 53.4364 36.0224L59.1931 32.9241C59.7981 32.5941 60.5314 32.5941 61.1364 32.9241ZM58.2416 42.5302L52.8883 39.8535C52.485 39.6518 52.0083 39.6702 51.605 39.9085C51.2383 40.1468 51 40.5685 51 41.0268V46.0868C51 46.9668 51.4766 47.7552 52.265 48.1402L57.6183 50.8168C57.8016 50.9085 58.0033 50.9635 58.205 50.9635C58.4433 50.9635 58.6816 50.8902 58.9016 50.7618C59.2866 50.5235 59.525 50.1018 59.525 49.6435V44.5835C59.525 43.7035 59.03 42.9152 58.2416 42.5302ZM67.4259 39.8535C67.8476 39.6518 68.3242 39.6702 68.7092 39.9085C69.0942 40.1468 69.3326 40.5685 69.3326 41.0268V46.0868C69.3326 46.9485 68.8559 47.7368 68.0676 48.1402L62.7142 50.8168C62.5309 50.9085 62.3292 50.9635 62.1276 50.9635C61.8892 50.9635 61.6509 50.8902 61.4309 50.7618C61.0459 50.5235 60.8076 50.1018 60.8076 49.6435V44.5835C60.8076 43.7035 61.2842 42.9152 62.0726 42.5302L67.4259 39.8535Z" fill="#00A824"/>
<rect x="3.5" y="3.5" width="95" height="95" rx="15.5" stroke="url(#paint1_radial_4441_14011)" stroke-opacity="0.2" stroke-width="7"/>
<defs>
<radialGradient id="paint0_radial_4441_14011" cx="0" cy="0" r="1" gradientUnits="userSpaceOnUse" gradientTransform="translate(90.6 6.99999) rotate(133.276) scale(116.336)">
<stop stop-color="#00B828"/>
<stop offset="1" stop-color="#00B828" stop-opacity="0"/>
</radialGradient>
<radialGradient id="paint1_radial_4441_14011" cx="0" cy="0" r="1" gradientUnits="userSpaceOnUse" gradientTransform="translate(90.6 6.99999) rotate(133.276) scale(116.336)">
<stop stop-color="#00B828"/>
<stop offset="1" stop-color="#00B828" stop-opacity="0"/>
</radialGradient>
</defs>
</svg>
