<svg width="48" height="48" viewBox="0 0 48 48" fill="none" xmlns="http://www.w3.org/2000/svg">
<path d="M31.3034 17.3372C29.9344 16.711 28.4805 16.2547 26.9629 16C26.7719 16.329 26.5596 16.7747 26.411 17.1249C24.7969 16.8914 23.1944 16.8914 21.6025 17.1249C21.454 16.7747 21.2311 16.329 21.0507 16C19.5225 16.2547 18.0686 16.711 16.7091 17.3372C13.9605 21.3911 13.2177 25.3495 13.5891 29.2549C15.4144 30.5815 17.1761 31.388 18.907 31.9187C19.3315 31.3456 19.7136 30.73 20.0425 30.0827C19.4164 29.8492 18.8221 29.5627 18.249 29.2231C18.3976 29.117 18.5462 29.0003 18.6842 28.8835C22.1438 30.4648 25.8911 30.4648 29.3082 28.8835C29.4568 29.0003 29.5948 29.117 29.7434 29.2231C29.1703 29.5627 28.576 29.8492 27.9499 30.0827C28.2789 30.73 28.6609 31.3456 29.0854 31.9187C30.8152 31.388 32.5875 30.5815 34.4033 29.2549C34.8596 24.7341 33.6806 20.8075 31.3034 17.3372ZM20.5201 26.8459C19.4801 26.8459 18.6311 25.9014 18.6311 24.7447C18.6311 23.5879 19.4588 22.6434 20.5201 22.6434C21.5707 22.6434 22.4303 23.5879 22.4091 24.7447C22.4091 25.9014 21.5707 26.8459 20.5201 26.8459ZM27.4936 26.8459C26.4535 26.8459 25.6034 25.9014 25.6034 24.7447C25.6034 23.5879 26.4323 22.6434 27.4936 22.6434C28.5442 22.6434 29.4038 23.5879 29.3825 24.7447C29.3825 25.9014 28.5548 26.8459 27.4936 26.8459Z" fill="#606264"/>
<rect x="0.5" y="0.5" width="47" height="47" rx="23.5" stroke="#E9E9EA"/>
</svg>
