<svg width="102" height="102" viewBox="0 0 102 102" fill="none" xmlns="http://www.w3.org/2000/svg">
<rect x="7" y="7" width="88" height="88" rx="12" fill="url(#paint0_radial_4441_14024)" fill-opacity="0.4"/>
<path fill-rule="evenodd" clip-rule="evenodd" d="M56.2995 35.3263H45.7028C44.9695 35.3263 44.3828 34.7396 44.3828 34.0063C44.3828 33.273 44.9695 32.668 45.7028 32.668H56.2995C57.0328 32.668 57.6195 33.2546 57.6195 33.988C57.6195 34.7213 57.0328 35.3263 56.2995 35.3263ZM59.1541 67.1303C56.7718 68.5535 53.9861 69.3713 51.0093 69.3713C42.2257 69.3713 35.1052 62.2508 35.1052 53.4672C35.1052 44.6835 42.2257 37.563 51.0093 37.563C58.3204 37.563 64.4793 42.4962 66.3389 49.2155C65.6824 49.0828 65.0739 49.2434 64.6205 49.465C64.0884 49.7251 63.6368 50.1247 63.2623 50.5484L63.2595 50.5515L55.6324 59.2237C55.0301 59.9087 54.274 61.1752 54.8865 62.5442C55.5021 63.9203 56.9574 64.1926 57.8708 64.1926H59.1541V67.1303ZM52.375 52.8346C52.375 53.5863 51.7517 54.2096 51 54.2096C50.2484 54.2096 49.625 53.5863 49.625 52.8346V43.668C49.625 42.9163 50.2484 42.293 51 42.293C51.7517 42.293 52.375 42.9163 52.375 43.668V52.8346ZM66.6723 59.7927H69.7889C71.2006 59.7927 71.5856 60.6543 70.6506 61.7177L63.8306 69.4727L63.0239 70.3893C61.9056 71.6543 60.9889 71.306 60.9889 69.6193V62.3593H57.8723C56.4606 62.3593 56.0756 61.4977 57.0106 60.4343L63.8306 52.6793L64.6373 51.7627C65.7556 50.4977 66.6723 50.846 66.6723 52.5327V59.7927Z" fill="#00A824"/>
<rect x="3.5" y="3.5" width="95" height="95" rx="15.5" stroke="url(#paint1_radial_4441_14024)" stroke-opacity="0.2" stroke-width="7"/>
<defs>
<radialGradient id="paint0_radial_4441_14024" cx="0" cy="0" r="1" gradientUnits="userSpaceOnUse" gradientTransform="translate(90.6 6.99999) rotate(133.276) scale(116.336)">
<stop stop-color="#00B828"/>
<stop offset="1" stop-color="#00B828" stop-opacity="0"/>
</radialGradient>
<radialGradient id="paint1_radial_4441_14024" cx="0" cy="0" r="1" gradientUnits="userSpaceOnUse" gradientTransform="translate(90.6 6.99999) rotate(133.276) scale(116.336)">
<stop stop-color="#00B828"/>
<stop offset="1" stop-color="#00B828" stop-opacity="0"/>
</radialGradient>
</defs>
</svg>
