<svg width="102" height="102" viewBox="0 0 102 102" fill="none" xmlns="http://www.w3.org/2000/svg">
<rect x="7" y="7" width="88" height="88" rx="12" fill="url(#paint0_radial_4441_14017)" fill-opacity="0.4"/>
<path fill-rule="evenodd" clip-rule="evenodd" d="M41.8333 43.668H36.3333C34.3166 43.668 32.6666 42.018 32.6666 40.0013V36.3346C32.6666 34.318 34.3166 32.668 36.3333 32.668H41.8333C43.85 32.668 45.5 34.318 45.5 36.3346V36.793H58.3333V36.7013C58.3333 35.4913 59.3233 34.5013 60.5333 34.5013H67.1333C68.3433 34.5013 69.3333 35.4913 69.3333 36.7013V39.6346C69.3333 40.8446 68.3433 41.8346 67.1333 41.8346H60.5333C59.3233 41.8346 58.3333 40.8446 58.3333 39.6346V39.543H53.2916V50.543H58.3333V50.4513C58.3333 49.2413 59.3233 48.2513 60.5333 48.2513H67.1333C68.3433 48.2513 69.3333 49.2413 69.3333 50.4513V53.3846C69.3333 54.5946 68.3433 55.5846 67.1333 55.5846H60.5333C59.3233 55.5846 58.3333 54.5946 58.3333 53.3846V53.293H53.2916V62.0013C53.2916 63.2663 54.3183 64.293 55.5833 64.293H58.3333V64.2013C58.3333 62.9913 59.3233 62.0013 60.5333 62.0013H67.1333C68.3433 62.0013 69.3333 62.9913 69.3333 64.2013V67.1346C69.3333 68.3446 68.3433 69.3346 67.1333 69.3346H60.5333C59.3233 69.3346 58.3333 68.3446 58.3333 67.1346V67.043H55.5833C52.7966 67.043 50.5416 64.788 50.5416 62.0013V39.543H45.5V40.0013C45.5 42.018 43.85 43.668 41.8333 43.668Z" fill="#00A824"/>
<rect x="3.5" y="3.5" width="95" height="95" rx="15.5" stroke="url(#paint1_radial_4441_14017)" stroke-opacity="0.2" stroke-width="7"/>
<defs>
<radialGradient id="paint0_radial_4441_14017" cx="0" cy="0" r="1" gradientUnits="userSpaceOnUse" gradientTransform="translate(90.6 6.99999) rotate(133.276) scale(116.336)">
<stop stop-color="#00B828"/>
<stop offset="1" stop-color="#00B828" stop-opacity="0"/>
</radialGradient>
<radialGradient id="paint1_radial_4441_14017" cx="0" cy="0" r="1" gradientUnits="userSpaceOnUse" gradientTransform="translate(90.6 6.99999) rotate(133.276) scale(116.336)">
<stop stop-color="#00B828"/>
<stop offset="1" stop-color="#00B828" stop-opacity="0"/>
</radialGradient>
</defs>
</svg>
