<svg width="100" height="50" viewBox="0 0 100 50" fill="none" xmlns="http://www.w3.org/2000/svg">
<path d="M46.9897 14.7272V10.3672H51.6634V14.7272H46.9897ZM46.9897 34.3785V17.0326H51.6789V34.3785H46.9897Z" fill="white"/>
<path d="M66.8767 17.0312H71.7383L64.8534 34.3771H60.5248L53.4673 17.0312H58.4704L62.7047 28.6526L66.8767 17.0312Z" fill="white"/>
<path d="M86.6788 17.0313H91.6661L84.1067 34.1418C83.3853 35.7729 82.682 37.0406 81.9972 37.945C81.3124 38.8494 80.5151 39.5238 79.6057 39.9683C78.6958 40.4126 77.5927 40.6348 76.2964 40.6348H74.3672V36.4159H75.9983C77.1066 36.4159 77.8985 36.2121 78.3745 35.8043C78.85 35.3965 79.3598 34.5234 79.9036 33.1852L79.9663 33.044L72.6265 17.0312H77.7237L82.3502 27.696L86.6788 17.0313Z" fill="white"/>
<path d="M26.2988 9.36328C20.765 9.36328 16.263 13.8653 16.263 19.3991C16.263 23.8398 19.8757 27.4525 24.3164 27.4525C27.6641 27.4525 30.3875 24.7292 30.3875 21.3815C30.3875 19.1271 28.5532 17.2928 26.2988 17.2928C24.5909 17.2928 23.2014 18.6823 23.2014 20.3903C23.2014 21.5535 24.1444 22.4966 25.3076 22.4966C25.4964 22.4966 25.6793 22.4716 25.8536 22.4252C25.5187 22.9167 24.9546 23.24 24.3164 23.24C22.1986 23.24 20.4756 21.517 20.4756 19.3991C20.4756 16.1881 23.0879 13.5758 26.2988 13.5758C30.6029 13.5758 34.1045 17.0774 34.1045 21.3815C34.1045 26.7786 29.7136 31.1695 24.3164 31.1695C17.8263 31.1695 12.546 25.8893 12.546 19.3991C12.546 18.6025 12.6164 17.8107 12.752 17.0322H8.48999C8.38629 17.8144 8.3335 18.6051 8.3335 19.3991C8.3335 28.2121 15.5034 35.382 24.3164 35.382C32.0364 35.382 38.317 29.1014 38.317 21.3815C38.317 14.7546 32.9257 9.36328 26.2988 9.36328Z" fill="#00B828"/>
</svg>
