<svg width="48" height="48" viewBox="0 0 48 48" fill="none" xmlns="http://www.w3.org/2000/svg">
<path d="M34.2125 17.6531C33.4491 17.9908 32.6395 18.2126 31.8106 18.3112C32.6839 17.7884 33.3374 16.966 33.6493 15.9971C32.8287 16.4847 31.9305 16.8278 30.9938 17.0117C30.2031 16.1681 29.098 15.6901 27.9418 15.6914C25.6326 15.6914 23.7597 17.5637 23.7597 19.8739C23.7597 20.2017 23.7973 20.5195 23.8676 20.8262C20.3905 20.6511 17.3101 18.9871 15.2468 16.4565C14.8753 17.0947 14.6801 17.8202 14.681 18.5587C14.681 20.0097 15.4196 21.2903 16.5415 22.0401C15.8774 22.0191 15.2279 21.8397 14.6472 21.5168C14.6465 21.5344 14.6465 21.5519 14.6465 21.5686C14.6465 23.5955 16.0882 25.2863 18.002 25.6702C17.6428 25.7674 17.2723 25.8165 16.9002 25.8162C16.63 25.8162 16.3677 25.7913 16.1128 25.7424C16.6453 27.4036 18.1889 28.613 20.0196 28.6462C18.5381 29.8089 16.7087 30.4397 14.8254 30.437C14.4921 30.4373 14.1591 30.4176 13.8281 30.3782C15.74 31.6073 17.9655 32.2596 20.2384 32.2572C27.9316 32.2572 32.138 25.8846 32.138 20.3582C32.138 20.1774 32.1336 19.9959 32.1256 19.817C32.9443 19.2255 33.651 18.4927 34.2125 17.6531Z" fill="#606264"/>
<rect x="0.5" y="0.5" width="47" height="47" rx="23.5" stroke="#E9E9EA"/>
</svg>
