<?xml version="1.0" encoding="UTF-8"?>
<svg id="Layer_1" data-name="Layer 1" xmlns="http://www.w3.org/2000/svg" width="28" height="28" viewBox="0 0 28 28">
  <path d="m25.09,8.4c-.27-1-1.05-1.79-2.05-2.06-1.8-.49-9.04-.49-9.04-.49,0,0-7.23,0-9.04.49-1,.27-1.78,1.06-2.05,2.06-.48,1.82-.48,5.6-.48,5.6,0,0,0,3.79.48,5.6.27,1,1.05,1.79,2.05,2.06,1.8.49,9.04.49,9.04.49,0,0,7.23,0,9.04-.49,1-.27,1.78-1.06,2.05-2.06.48-1.82.48-5.6.48-5.6,0,0,0-3.79-.48-5.6Zm-13.45,9.04v-6.88l6.05,3.44-6.05,3.44Z" fill="#8f9194" isolation="isolate" opacity=".72"/>
</svg>