<svg width="48" height="48" viewBox="0 0 48 48" fill="none" xmlns="http://www.w3.org/2000/svg">
<path d="M24 14.0039C18.475 14.0039 14 18.4789 14 24.0039C14 28.4289 16.8625 32.1664 20.8375 33.4914C21.3375 33.5789 21.525 33.2789 21.525 33.0164C21.525 32.7789 21.5125 31.9914 21.5125 31.1539C19 31.6164 18.35 30.5414 18.15 29.9789C18.0375 29.6914 17.55 28.8039 17.125 28.5664C16.775 28.3789 16.275 27.9164 17.1125 27.9039C17.9 27.8914 18.4625 28.6289 18.65 28.9289C19.55 30.4414 20.9875 30.0164 21.5625 29.7539C21.65 29.1039 21.9125 28.6664 22.2 28.4164C19.975 28.1664 17.65 27.3039 17.65 23.4789C17.65 22.3914 18.0375 21.4914 18.675 20.7914C18.575 20.5414 18.225 19.5164 18.775 18.1414C18.775 18.1414 19.6125 17.8789 21.525 19.1664C22.325 18.9414 23.175 18.8289 24.025 18.8289C24.875 18.8289 25.725 18.9414 26.525 19.1664C28.4375 17.8664 29.275 18.1414 29.275 18.1414C29.825 19.5164 29.475 20.5414 29.375 20.7914C30.0125 21.4914 30.4 22.3789 30.4 23.4789C30.4 27.3164 28.0625 28.1664 25.8375 28.4164C26.2 28.7289 26.5125 29.3289 26.5125 30.2664C26.5125 31.6039 26.5 32.6789 26.5 33.0164C26.5 33.2789 26.6875 33.5914 27.1875 33.4914C31.258 32.1172 33.9989 28.3002 34 24.0039C34 18.4789 29.525 14.0039 24 14.0039Z" fill="#606264"/>
<rect x="0.5" y="0.5" width="47" height="47" rx="23.5" stroke="#E9E9EA"/>
</svg>
