<svg width="48" height="48" viewBox="0 0 48 48" fill="none" xmlns="http://www.w3.org/2000/svg">
<path d="M18.9405 16.9999C18.9401 17.8142 18.4461 18.547 17.6913 18.8527C16.9366 19.1584 16.0719 18.976 15.5049 18.3915C14.9379 17.807 14.7819 16.9371 15.1105 16.1921C15.4391 15.447 16.1865 14.9755 17.0005 14.9999C18.0815 15.0324 18.941 15.9184 18.9405 16.9999ZM19.0005 20.4799H15.0005V32.9999H19.0005V20.4799ZM25.3205 20.4799H21.3405V32.9999H25.2805V26.4299C25.2805 22.7699 30.0505 22.4299 30.0505 26.4299V32.9999H34.0005V25.0699C34.0005 18.8999 26.9405 19.1299 25.2805 22.1599L25.3205 20.4799Z" fill="#606264"/>
<rect x="0.5" y="0.5" width="47" height="47" rx="23.5" stroke="#E9E9EA"/>
</svg>
